<svg width="64" height="64" viewBox="0 0 64 64" fill="none" xmlns="http://www.w3.org/2000/svg">
<path d="M18 0L6.1196 32.3636L18 64H10.5249L0.89701 38.303C0.299003 36.8081 0 34.8283 0 32.3636C0 31.2323 0.0730897 30.1616 0.219269 29.1515C0.378738 28.1414 0.591362 27.2727 0.857143 26.5455L10.6047 0H18Z" fill="#00E5FF"/>
<path d="M44.626 29H27.2217C26.7764 29 26.2939 28.9505 25.7744 28.8516C25.2673 28.7402 24.7601 28.5732 24.2529 28.3506C23.7581 28.1279 23.2819 27.8434 22.8242 27.4971C22.3665 27.1383 21.9583 26.7116 21.5996 26.2168C21.2533 25.7096 20.9749 25.1283 20.7646 24.4727C20.5544 23.8047 20.4492 23.0563 20.4492 22.2275V9.16504C20.4492 8.71973 20.4987 8.24349 20.5977 7.73633C20.709 7.2168 20.876 6.70964 21.0986 6.21484C21.3213 5.70768 21.612 5.22526 21.9707 4.76758C22.3294 4.3099 22.7562 3.90788 23.251 3.56152C23.7581 3.2028 24.3395 2.91829 24.9951 2.70801C25.6507 2.49772 26.3929 2.39258 27.2217 2.39258H44.626V7.2168H27.2217C26.5908 7.2168 26.1084 7.38379 25.7744 7.71777C25.4404 8.05176 25.2734 8.54655 25.2734 9.20215V22.2275C25.2734 22.846 25.4404 23.3285 25.7744 23.6748C26.1208 24.0088 26.6032 24.1758 27.2217 24.1758H44.626V29ZM47.3535 49.8672C47.3535 51.4876 47.069 52.9782 46.5 54.3389C45.9434 55.6995 45.1702 56.8747 44.1807 57.8643C43.1911 58.8415 42.016 59.6084 40.6553 60.165C39.2946 60.7217 37.8164 61 36.2207 61H23.1953C22.849 61 22.5273 60.9382 22.2305 60.8145C21.9336 60.6908 21.6738 60.5238 21.4512 60.3135C21.2409 60.0908 21.0739 59.8311 20.9502 59.5342C20.8265 59.2373 20.7646 58.9157 20.7646 58.5693V36.8232C20.7646 36.4893 20.8265 36.1738 20.9502 35.877C21.0739 35.5801 21.2409 35.3203 21.4512 35.0977C21.6738 34.875 21.9336 34.7018 22.2305 34.5781C22.5273 34.4544 22.849 34.3926 23.1953 34.3926H36.2207C37.8164 34.3926 39.2946 34.6709 40.6553 35.2275C42.016 35.7842 43.1911 36.5573 44.1807 37.5469C45.1702 38.5241 45.9434 39.6992 46.5 41.0723C47.069 42.4329 47.3535 43.9173 47.3535 45.5254V49.8672ZM42.5293 45.5254C42.5293 44.5853 42.3747 43.7256 42.0654 42.9463C41.7686 42.167 41.3418 41.5052 40.7852 40.9609C40.2285 40.4043 39.5605 39.9775 38.7812 39.6807C38.0143 39.3714 37.1608 39.2168 36.2207 39.2168H25.5889V56.1758H36.2207C37.1608 56.1758 38.0143 56.0273 38.7812 55.7305C39.5605 55.4212 40.2285 54.9945 40.7852 54.4502C41.3418 53.8936 41.7686 53.2318 42.0654 52.4648C42.3747 51.6855 42.5293 50.8197 42.5293 49.8672V45.5254Z" fill="white"/>
<path d="M44.626 29V30H45.626V29H44.626ZM25.7744 28.8516L25.56 29.8283L25.5736 29.8313L25.5873 29.8339L25.7744 28.8516ZM24.2529 28.3506L23.8425 29.2625L23.8509 29.2662L24.2529 28.3506ZM22.8242 27.4971L22.2073 28.2841L22.214 28.2894L22.2208 28.2945L22.8242 27.4971ZM21.5996 26.2168L20.7738 26.7808L20.7817 26.7924L20.79 26.8038L21.5996 26.2168ZM20.7646 24.4727L19.8108 24.7729L19.8124 24.7781L20.7646 24.4727ZM20.5977 7.73633L19.6199 7.5268L19.6179 7.53579L19.6162 7.54482L20.5977 7.73633ZM21.0986 6.21484L22.0106 6.62523L22.0143 6.61683L21.0986 6.21484ZM21.9707 4.76758L21.1836 4.1507L21.9707 4.76758ZM23.251 3.56152L23.8244 4.38077L23.8284 4.37794L23.251 3.56152ZM44.626 2.39258H45.626V1.39258H44.626V2.39258ZM44.626 7.2168V8.2168H45.626V7.2168H44.626ZM25.7744 23.6748L25.0546 24.3689L25.0672 24.382L25.0803 24.3946L25.7744 23.6748ZM44.626 24.1758H45.626V23.1758H44.626V24.1758ZM44.626 28H27.2217V30H44.626V28ZM27.2217 28C26.8495 28 26.4305 27.9585 25.9615 27.8692L25.5873 29.8339C26.1574 29.9425 26.7032 30 27.2217 30V28ZM25.9888 27.8748C25.5502 27.7785 25.1057 27.6328 24.6549 27.4349L23.8509 29.2662C24.4145 29.5136 24.9843 29.7019 25.56 29.8283L25.9888 27.8748ZM24.6633 27.4387C24.2408 27.2485 23.8289 27.0033 23.4277 26.6997L22.2208 28.2945C22.7349 28.6835 23.2755 29.0073 23.8426 29.2625L24.6633 27.4387ZM23.4411 26.71C23.0603 26.4116 22.7161 26.0531 22.4092 25.6298L20.79 26.8038C21.2006 27.37 21.6728 27.8651 22.2073 28.2841L23.4411 26.71ZM22.4254 25.6528C22.1396 25.2343 21.9012 24.742 21.7169 24.1672L19.8124 24.7781C20.0487 25.5146 20.3669 26.185 20.7738 26.7808L22.4254 25.6528ZM21.7185 24.1724C21.5438 23.6175 21.4492 22.9726 21.4492 22.2275H19.4492C19.4492 23.14 19.5649 23.9919 19.8108 24.7729L21.7185 24.1724ZM21.4492 22.2275V9.16504H19.4492V22.2275H21.4492ZM21.4492 9.16504C21.4492 8.79326 21.4906 8.38169 21.5791 7.92784L19.6162 7.54482C19.5068 8.10529 19.4492 8.64619 19.4492 9.16504H21.4492ZM21.5755 7.94586C21.6717 7.49686 21.8163 7.05694 22.0106 6.62521L20.1867 5.80448C19.9357 6.36233 19.7463 6.93673 19.6199 7.5268L21.5755 7.94586ZM22.0143 6.61683C22.2016 6.19014 22.4482 5.77947 22.7578 5.38446L21.1836 4.1507C20.7758 4.67105 20.441 5.22522 20.183 5.81285L22.0143 6.61683ZM22.7578 5.38446C23.0533 5.00735 23.4073 4.67276 23.8244 4.38076L22.6775 2.74229C22.1051 3.143 21.6055 3.61244 21.1836 4.1507L22.7578 5.38446ZM23.8284 4.37794C24.2439 4.08408 24.7316 3.84271 25.3005 3.66022L24.6897 1.75579C23.9474 1.99388 23.2724 2.32152 22.6735 2.74511L23.8284 4.37794ZM25.3005 3.66022C25.8397 3.48729 26.4762 3.39258 27.2217 3.39258V1.39258C26.3097 1.39258 25.4617 1.50816 24.6897 1.75579L25.3005 3.66022ZM27.2217 3.39258H44.626V1.39258H27.2217V3.39258ZM43.626 2.39258V7.2168H45.626V2.39258H43.626ZM44.626 6.2168H27.2217V8.2168H44.626V6.2168ZM27.2217 6.2168C26.4175 6.2168 25.6451 6.43286 25.0673 7.01067L26.4815 8.42488C26.5717 8.33472 26.7641 8.2168 27.2217 8.2168V6.2168ZM25.0673 7.01067C24.4828 7.59515 24.2734 8.38611 24.2734 9.20215H26.2734C26.2734 8.70699 26.398 8.50836 26.4815 8.42488L25.0673 7.01067ZM24.2734 9.20215V22.2275H26.2734V9.20215H24.2734ZM24.2734 22.2275C24.2734 23.028 24.4937 23.7873 25.0546 24.3689L26.4943 22.9807C26.3871 22.8696 26.2734 22.664 26.2734 22.2275H24.2734ZM25.0803 24.3946C25.6619 24.9555 26.4212 25.1758 27.2217 25.1758V23.1758C26.7852 23.1758 26.5797 23.0621 26.4685 22.955L25.0803 24.3946ZM27.2217 25.1758H44.626V23.1758H27.2217V25.1758ZM43.626 24.1758V29H45.626V24.1758H43.626ZM46.5 54.3389L45.5774 53.953L45.5745 53.9602L46.5 54.3389ZM44.1807 57.8643L44.8833 58.5758L44.8878 58.5714L44.1807 57.8643ZM22.2305 60.8145L21.8459 61.7375L22.2305 60.8145ZM21.4512 60.3135L20.7242 61.0001L20.7438 61.0209L20.7645 61.0405L21.4512 60.3135ZM21.4512 35.0977L20.7441 34.3905L20.734 34.4006L20.7242 34.411L21.4512 35.0977ZM44.1807 37.5469L43.4735 38.254L43.478 38.2584L44.1807 37.5469ZM46.5 41.0723L45.5732 41.448L45.5774 41.4581L46.5 41.0723ZM42.0654 42.9463L41.1309 43.3023L41.1359 43.3151L42.0654 42.9463ZM40.7852 40.9609L40.078 41.6681L40.086 41.6759L40.7852 40.9609ZM38.7812 39.6807L38.4073 40.6081L38.4162 40.6117L38.4253 40.6152L38.7812 39.6807ZM25.5889 39.2168V38.2168H24.5889V39.2168H25.5889ZM25.5889 56.1758H24.5889V57.1758H25.5889V56.1758ZM38.7812 55.7305L39.1423 56.6631L39.1501 56.66L38.7812 55.7305ZM40.7852 54.4502L41.4843 55.1652L41.4923 55.1573L40.7852 54.4502ZM42.0654 52.4648L41.1359 52.096L41.1329 52.1038L42.0654 52.4648ZM46.3535 49.8672C46.3535 51.3683 46.0905 52.7262 45.5774 53.9531L47.4226 54.7247C48.0475 53.2302 48.3535 51.607 48.3535 49.8672H46.3535ZM45.5745 53.9602C45.0655 55.2043 44.3645 56.2662 43.4736 57.1572L44.8878 58.5714C45.976 57.4832 46.8212 56.1948 47.4255 54.7175L45.5745 53.9602ZM43.478 57.1527C42.5867 58.0329 41.5234 58.7295 40.2766 59.2395L41.0339 61.0906C42.5085 60.4873 43.7955 59.65 44.8833 58.5758L43.478 57.1527ZM40.2766 59.2395C39.0461 59.7429 37.6977 60 36.2207 60V62C37.9351 62 39.5431 61.7005 41.0339 61.0906L40.2766 59.2395ZM36.2207 60H23.1953V62H36.2207V60ZM23.1953 60C22.9707 60 22.781 59.9605 22.6151 59.8914L21.8459 61.7375C22.2737 61.9158 22.7272 62 23.1953 62V60ZM22.6151 59.8914C22.4242 59.8119 22.2681 59.7095 22.1378 59.5865L20.7645 61.0405C21.0795 61.338 21.4429 61.5697 21.8459 61.7375L22.6151 59.8914ZM22.1782 59.6269C22.0551 59.4965 21.9528 59.3404 21.8733 59.1496L20.0271 59.9188C20.195 60.3217 20.4267 60.6851 20.7242 61.0001L22.1782 59.6269ZM21.8733 59.1496C21.8042 58.9837 21.7646 58.7939 21.7646 58.5693H19.7646C19.7646 59.0375 19.8488 59.4909 20.0271 59.9188L21.8733 59.1496ZM21.7646 58.5693V36.8232H19.7646V58.5693H21.7646ZM21.7646 36.8232C21.7646 36.6161 21.8023 36.4319 21.8733 36.2616L20.0271 35.4923C19.8507 35.9158 19.7646 36.3624 19.7646 36.8232H21.7646ZM21.8733 36.2616C21.9528 36.0707 22.0551 35.9146 22.1782 35.7843L20.7242 34.411C20.4267 34.726 20.195 35.0894 20.0271 35.4923L21.8733 36.2616ZM22.1583 35.8048C22.2866 35.6765 22.4361 35.5758 22.6151 35.5012L21.8459 33.655C21.431 33.8279 21.0611 34.0735 20.7441 34.3905L22.1583 35.8048ZM22.6151 35.5012C22.781 35.4321 22.9707 35.3926 23.1953 35.3926V33.3926C22.7272 33.3926 22.2737 33.4768 21.8459 33.655L22.6151 35.5012ZM23.1953 35.3926H36.2207V33.3926H23.1953V35.3926ZM36.2207 35.3926C37.6977 35.3926 39.0461 35.6497 40.2766 36.1531L41.0339 34.302C39.5431 33.6921 37.9351 33.3926 36.2207 33.3926V35.3926ZM40.2766 36.1531C41.5207 36.662 42.5826 37.363 43.4736 38.254L44.8878 36.8398C43.7996 35.7516 42.5112 34.9063 41.0339 34.302L40.2766 36.1531ZM43.478 38.2584C44.3646 39.1339 45.0643 40.1926 45.5733 41.448L47.4267 40.6966C46.8224 39.2058 45.9759 37.9142 44.8833 36.8353L43.478 38.2584ZM45.5774 41.4581C46.0909 42.6859 46.3535 44.0377 46.3535 45.5254H48.3535C48.3535 43.7969 48.0471 42.18 47.4226 40.6865L45.5774 41.4581ZM46.3535 45.5254V49.8672H48.3535V45.5254H46.3535ZM43.5293 45.5254C43.5293 44.4742 43.3561 43.4875 42.9949 42.5774L41.1359 43.3151C41.3933 43.9636 41.5293 44.6963 41.5293 45.5254H43.5293ZM42.9999 42.5903C42.6552 41.6855 42.1517 40.8985 41.4843 40.2459L40.086 41.6759C40.5319 42.1119 40.8819 42.6485 41.1309 43.3023L42.9999 42.5903ZM41.4923 40.2538C40.8301 39.5916 40.0403 39.0902 39.1372 38.7462L38.4253 40.6152C39.0808 40.8649 39.627 41.217 40.078 41.668L41.4923 40.2538ZM39.1552 38.7532C38.2543 38.3899 37.2715 38.2168 36.2207 38.2168V40.2168C37.0501 40.2168 37.7744 40.3529 38.4073 40.6081L39.1552 38.7532ZM36.2207 38.2168H25.5889V40.2168H36.2207V38.2168ZM24.5889 39.2168V56.1758H26.5889V39.2168H24.5889ZM25.5889 57.1758H36.2207V55.1758H25.5889V57.1758ZM36.2207 57.1758C37.2668 57.1758 38.2449 57.0104 39.1422 56.663L38.4203 54.7979C37.7837 55.0443 37.0548 55.1758 36.2207 55.1758V57.1758ZM39.1501 56.66C40.043 56.3056 40.8257 55.8091 41.4843 55.1652L40.086 53.7352C39.6313 54.1798 39.0781 54.5368 38.4124 54.801L39.1501 56.66ZM41.4923 55.1573C42.1517 54.4978 42.6532 53.7166 42.998 52.8258L41.1329 52.1038C40.8839 52.7469 40.5319 53.2893 40.078 53.7431L41.4923 55.1573ZM42.9949 52.8337C43.3567 51.9221 43.5293 50.9289 43.5293 49.8672H41.5293C41.5293 50.7104 41.3927 51.449 41.1359 52.096L42.9949 52.8337ZM43.5293 49.8672V45.5254H41.5293V49.8672H43.5293Z" fill="white"/>
<path d="M53.3754 0L63.1429 26.5455C63.4086 27.2727 63.6146 28.1414 63.7608 29.1515C63.9203 30.1616 64 31.2323 64 32.3636C64 33.5354 63.9203 34.6465 63.7608 35.697C63.6013 36.7071 63.3821 37.5758 63.103 38.303L53.4551 64H46L57.8804 32.3636L46 0H53.3754Z" fill="#00E5FF"/>
</svg>
